<svg width="149" height="68" viewBox="0 0 149 68" fill="none" xmlns="http://www.w3.org/2000/svg">
<path d="M22.1308 18.0403C23.8179 18.0403 25.3561 18.1726 26.7455 18.4372C28.1349 18.7019 29.5739 19.0327 31.0625 19.4296L32.2534 19.7274L31.8068 27.5674H28.383L26.8944 23.2504C26.1004 22.6219 25.2238 22.1753 24.2645 21.9107C23.3382 21.6129 22.015 21.4641 20.2948 21.4641C18.0784 21.4641 16.0771 22.0926 14.2907 23.3497C12.5375 24.6067 11.1481 26.3931 10.1226 28.7087C9.09711 30.9912 8.58436 33.6542 8.58436 36.6976C8.58436 39.7079 9.04749 42.5032 9.97374 45.0835C10.9331 47.6307 12.3224 49.6816 14.1419 51.2364C15.9944 52.7581 18.2108 53.519 20.791 53.519C24.3637 53.519 26.7124 52.6754 27.8371 50.9883L29.425 46.8698H32.303V54.4121C31.7737 54.4452 30.8971 54.6602 29.6731 55.0572C28.1183 55.5534 26.5801 55.9504 25.0584 56.2481C23.5698 56.5458 21.8331 56.6947 19.8482 56.6947C16.3748 56.6947 13.2818 55.9338 10.5692 54.4121C7.85659 52.8904 5.73945 50.7568 4.21775 48.0111C2.69605 45.2323 1.9352 42.0401 1.9352 38.4343C1.9352 34.4977 2.84491 30.9747 4.66433 27.8651C6.48376 24.7556 8.9317 22.3407 12.0082 20.6205C15.1177 18.9003 18.4919 18.0403 22.1308 18.0403ZM42.4861 52.6258V21.8114L38.4172 21.3648V18.3876H52.7079V21.3648L48.6886 21.8114V35.7052H65.7085V21.7618L61.6892 21.3648V18.3876H75.8807V21.3648L71.8615 21.8114V52.6258L76.1288 53.4694V56H61.4411V53.4694L65.7085 52.6258V39.1786H48.6886V52.6258L52.9064 53.4197V56H38.4172V53.4197L42.4861 52.6258ZM123.55 52.6258V22.1588L119.531 21.6129V18.3876H126.676C127.569 18.3876 128.628 18.338 129.852 18.2387C132.035 18.1064 133.821 18.0403 135.211 18.0403C139.511 18.0403 142.803 18.8838 145.085 20.5709C147.401 22.258 148.559 25.1195 148.559 29.1553C148.559 31.6694 147.93 33.8692 146.673 35.7548C145.416 37.6073 143.729 39.0298 141.612 40.0222C139.495 41.0146 137.179 41.5108 134.665 41.5108H132.184C130.96 41.5108 130.116 41.5439 129.653 41.61V52.6258L135.905 53.4197V56H119.084V53.4197L123.55 52.6258ZM129.653 38.1862C130.712 38.3516 132.283 38.4343 134.367 38.4343C136.815 38.4343 138.767 37.7065 140.222 36.251C141.678 34.7955 142.406 32.4137 142.406 29.1056C142.406 26.4592 141.628 24.4579 140.073 23.1016C138.552 21.7453 136.402 21.1002 133.623 21.1664C131.737 21.2987 130.414 21.4475 129.653 21.6129V38.1862Z" fill="white"/>
<path d="M81.662 40.7719C81.662 34.695 83.4943 30.3102 86.2636 27.4482C89.0348 24.5839 92.7971 23.1893 96.7637 23.1893C100.784 23.1893 104.967 24.2015 108.136 26.8704C111.284 29.521 113.516 33.8784 113.519 40.7567C113.108 48.9267 110.856 53.2618 107.846 55.5877C104.81 57.934 100.86 58.3546 96.7637 58.3546C92.7728 58.3546 89.0153 57.1517 86.256 54.3982C83.4998 51.6478 81.662 47.2725 81.662 40.7719Z" fill="#FE6600" stroke="url(#paint0_linear_840_735)" stroke-width="1.22314"/>
<path d="M84.2129 14.9209C84.2129 14.9209 91.9144 19.8865 97.4427 19.8891C102.971 19.8916 110.677 15.7602 110.677 15.7602L110.67 29.8193C110.67 29.8193 103.649 32.2971 97.437 32.2942C91.2246 32.2913 84.206 29.807 84.206 29.807L84.2129 14.9209Z" fill="#242020"/>
<path d="M99.9206 25.9035L108.192 23.202C108.192 23.202 106.987 27.2595 104.28 28.0312C101.573 28.8029 99.9206 25.9035 99.9206 25.9035Z" fill="white"/>
<path d="M94.9587 25.9012L86.6899 23.192C86.6899 23.192 87.8909 27.2506 90.5971 28.0248C93.3033 28.799 94.9587 25.9012 94.9587 25.9012Z" fill="white"/>
<defs>
<linearGradient id="paint0_linear_840_735" x1="97.5907" y1="58.9662" x2="97.5907" y2="22.5777" gradientUnits="userSpaceOnUse">
<stop stop-color="#FF6600" stop-opacity="0.56"/>
<stop offset="1" stop-color="#FF6600" stop-opacity="0"/>
</linearGradient>
</defs>
</svg>
