<svg width="1800" height="1800" viewBox="0 0 1800 1800" fill="none" xmlns="http://www.w3.org/2000/svg">
<circle cx="900" cy="900" r="900" fill="white"/>
<path d="M361.784 782.992C328.793 782.992 302.848 794.683 283.951 818.065C265.053 841.447 255.604 873.717 255.604 914.876C255.604 957.956 264.653 990.547 282.749 1012.65C301.007 1034.75 327.351 1045.8 361.784 1045.8C376.678 1045.8 391.091 1044.36 405.024 1041.47C418.957 1038.43 433.451 1034.59 448.505 1029.94V1079.19C420.959 1089.6 389.73 1094.8 354.817 1094.8C303.409 1094.8 263.932 1079.27 236.386 1048.2C208.84 1016.97 195.067 972.37 195.067 914.395C195.067 877.881 201.713 845.931 215.006 818.545C228.459 791.16 247.837 770.18 273.14 755.606C298.444 741.033 328.152 733.746 362.264 733.746C398.138 733.746 431.289 741.273 461.717 756.327L441.058 804.132C429.207 798.527 416.635 793.642 403.343 789.478C390.21 785.154 376.357 782.992 361.784 782.992ZM815.915 1090H758.261V931.692H596.349V1090H538.935V738.791H596.349V882.445H758.261V738.791H815.915V1090ZM1583.38 844.97C1583.38 881.645 1571.37 909.751 1547.34 929.289C1523.32 948.828 1489.13 958.597 1444.77 958.597H1408.25V1090H1350.84V738.791H1451.97C1495.85 738.791 1528.69 747.759 1550.47 765.696C1572.41 783.633 1583.38 810.057 1583.38 844.97ZM1408.25 910.311H1438.76C1468.23 910.311 1489.85 905.187 1503.62 894.937C1517.4 884.687 1524.28 868.672 1524.28 846.892C1524.28 826.713 1518.12 811.659 1505.78 801.73C1493.45 791.8 1474.23 786.836 1448.13 786.836H1408.25V910.311Z" fill="#242020"/>
<path d="M1241.95 894.332C1241.95 954.584 1223.78 998.058 1196.33 1026.44C1168.85 1054.83 1131.55 1068.66 1092.22 1068.66C1052.36 1068.66 1010.88 1058.63 979.462 1032.16C948.258 1005.88 926.124 962.68 926.091 894.483C930.166 813.479 952.495 770.496 982.339 747.435C1012.44 724.172 1051.6 720.002 1092.22 720.002C1131.79 720.002 1169.04 731.929 1196.4 759.229C1223.73 786.499 1241.95 829.879 1241.95 894.332Z" fill="#FF6600" stroke="url(#paint0_linear_760_3)" stroke-width="12.1273"/>
<path d="M1216.66 1150.64C1216.66 1150.64 1140.3 1101.41 1085.49 1101.38C1030.68 1101.36 954.277 1142.32 954.277 1142.32L954.341 1002.93C954.341 1002.93 1023.95 978.359 1085.55 978.387C1147.14 978.416 1216.73 1003.05 1216.73 1003.05L1216.66 1150.64Z" fill="#242020"/>
<path d="M1060.92 1041.75L978.91 1068.54C978.91 1068.54 990.856 1028.31 1017.69 1020.65C1044.53 1013 1060.92 1041.75 1060.92 1041.75Z" fill="white"/>
<path d="M1110.12 1041.77L1192.1 1068.63C1192.1 1068.63 1180.19 1028.39 1153.36 1020.72C1126.53 1013.04 1110.12 1041.77 1110.12 1041.77Z" fill="white"/>
<defs>
<linearGradient id="paint0_linear_760_3" x1="1084.02" y1="713.938" x2="1084.02" y2="1074.72" gradientUnits="userSpaceOnUse">
<stop stop-color="#FF6600" stop-opacity="0.56"/>
<stop offset="1" stop-color="#FF6600" stop-opacity="0"/>
</linearGradient>
</defs>
</svg>
